<svg width="24" height="24" viewBox="0 0 24 24" fill="none" xmlns="http://www.w3.org/2000/svg">
<path opacity="0.8" d="M12 14C11.45 14 10.9793 13.8043 10.588 13.413C10.1967 13.0217 10.0007 12.5507 10 12C9.99934 11.4493 10.1953 10.9787 10.588 10.588C10.9807 10.1973 11.4513 10.0013 12 10C12.5487 9.99867 13.0197 10.1947 13.413 10.588C13.8063 10.9813 14.002 11.452 14 12C13.998 12.548 13.8023 13.019 13.413 13.413C13.0237 13.807 12.5527 14.0027 12 14ZM11 7V4C11 3.71667 11.096 3.47934 11.288 3.288C11.48 3.09667 11.7173 3.00067 12 3C12.2827 2.99934 12.5203 3.09534 12.713 3.288C12.9057 3.48067 13.0013 3.718 13 4V7C13 7.28334 12.904 7.521 12.712 7.713C12.52 7.905 12.2827 8.00067 12 8C11.7173 7.99934 11.48 7.90334 11.288 7.712C11.096 7.52067 11 7.28334 11 7ZM11 20V17C11 16.7167 11.096 16.4793 11.288 16.288C11.48 16.0967 11.7173 16.0007 12 16C12.2827 15.9993 12.5203 16.0953 12.713 16.288C12.9057 16.4807 13.0013 16.718 13 17V20C13 20.2833 12.904 20.521 12.712 20.713C12.52 20.905 12.2827 21.0007 12 21C11.7173 20.9993 11.48 20.9033 11.288 20.712C11.096 20.5207 11 20.2833 11 20ZM17 11H20C20.2833 11 20.521 11.096 20.713 11.288C20.905 11.48 21.0007 11.7173 21 12C20.9993 12.2827 20.9033 12.5203 20.712 12.713C20.5207 12.9057 20.2833 13.0013 20 13H17C16.7167 13 16.4793 12.904 16.288 12.712C16.0967 12.52 16.0007 12.2827 16 12C15.9993 11.7173 16.0953 11.48 16.288 11.288C16.4807 11.096 16.718 11 17 11ZM4 11H7C7.28334 11 7.521 11.096 7.713 11.288C7.905 11.48 8.00067 11.7173 8 12C7.99934 12.2827 7.90334 12.5203 7.712 12.713C7.52067 12.9057 7.28334 13.0013 7 13H4C3.71667 13 3.47934 12.904 3.288 12.712C3.09667 12.52 3.00067 12.2827 3 12C2.99934 11.7173 3.09534 11.48 3.288 11.288C3.48067 11.096 3.718 11 4 11Z" fill="white"/>
</svg>
