<svg width="151" height="150" viewBox="0 0 151 150" fill="none" xmlns="http://www.w3.org/2000/svg">
<path d="M75.5 87.5C72.0625 87.5 69.1209 86.2771 66.675 83.8313C64.2292 81.3854 63.0042 78.4417 63 75C62.9959 71.5584 64.2209 68.6167 66.675 66.175C69.1292 63.7334 72.0709 62.5084 75.5 62.5C78.9292 62.4917 81.8729 63.7167 84.3313 66.175C86.7896 68.6334 88.0125 71.575 88 75C87.9875 78.425 86.7646 81.3688 84.3313 83.8313C81.8979 86.2938 78.9542 87.5167 75.5 87.5ZM69.25 43.75V25C69.25 23.2292 69.85 21.7459 71.05 20.55C72.25 19.3542 73.7334 18.7542 75.5 18.75C77.2667 18.7459 78.7521 19.3459 79.9563 20.55C81.1604 21.7542 81.7584 23.2375 81.75 25V43.75C81.75 45.5209 81.15 47.0063 79.95 48.2063C78.75 49.4063 77.2667 50.0042 75.5 50C73.7334 49.9959 72.25 49.3959 71.05 48.2C69.85 47.0042 69.25 45.5209 69.25 43.75ZM69.25 125V106.25C69.25 104.479 69.85 102.996 71.05 101.8C72.25 100.604 73.7334 100.004 75.5 100C77.2667 99.9959 78.7521 100.596 79.9563 101.8C81.1604 103.004 81.7584 104.488 81.75 106.25V125C81.75 126.771 81.15 128.256 79.95 129.456C78.75 130.656 77.2667 131.254 75.5 131.25C73.7334 131.246 72.25 130.646 71.05 129.45C69.85 128.254 69.25 126.771 69.25 125ZM106.75 68.75H125.5C127.271 68.75 128.756 69.35 129.956 70.55C131.156 71.75 131.754 73.2334 131.75 75C131.746 76.7667 131.146 78.2521 129.95 79.4563C128.754 80.6604 127.271 81.2584 125.5 81.25H106.75C104.979 81.25 103.496 80.65 102.3 79.45C101.104 78.25 100.504 76.7667 100.5 75C100.496 73.2334 101.096 71.75 102.3 70.55C103.504 69.35 104.988 68.75 106.75 68.75ZM25.5 68.75H44.25C46.0209 68.75 47.5063 69.35 48.7063 70.55C49.9063 71.75 50.5042 73.2334 50.5 75C50.4959 76.7667 49.8959 78.2521 48.7 79.4563C47.5042 80.6604 46.0209 81.2584 44.25 81.25H25.5C23.7292 81.25 22.2459 80.65 21.05 79.45C19.8542 78.25 19.2542 76.7667 19.25 75C19.2459 73.2334 19.8459 71.75 21.05 70.55C22.2542 69.35 23.7375 68.75 25.5 68.75Z" fill="#237BA1"/>
</svg>
