<svg width="16" height="16" viewBox="0 0 16 16" fill="none" xmlns="http://www.w3.org/2000/svg">
<g clip-path="url(#clip0_56_349)">
<path fill-rule="evenodd" clip-rule="evenodd" d="M7.66658 1.83334C6.90054 1.83334 6.142 1.98422 5.43426 2.27737C4.72653 2.57052 4.08347 3.0002 3.5418 3.54188C3.00012 4.08355 2.57044 4.72662 2.27729 5.43435C1.98414 6.14208 1.83325 6.90062 1.83325 7.66667C1.83325 8.43271 1.98414 9.19126 2.27729 9.89899C2.57044 10.6067 3.00012 11.2498 3.5418 11.7915C4.08347 12.3331 4.72653 12.7628 5.43426 13.056C6.142 13.3491 6.90054 13.5 7.66658 13.5C9.21368 13.5 10.6974 12.8854 11.7914 11.7915C12.8853 10.6975 13.4999 9.21377 13.4999 7.66667C13.4999 6.11957 12.8853 4.63584 11.7914 3.54188C10.6974 2.44792 9.21368 1.83334 7.66658 1.83334ZM0.833252 7.66667C0.833252 3.89334 3.89325 0.833336 7.66658 0.833336C11.4399 0.833336 14.4999 3.89334 14.4999 7.66667C14.4999 9.37333 13.8739 10.9347 12.8393 12.132L15.0199 14.3133C15.069 14.3591 15.1084 14.4143 15.1358 14.4756C15.1631 14.537 15.1778 14.6032 15.179 14.6703C15.1802 14.7375 15.1678 14.8041 15.1427 14.8664C15.1175 14.9287 15.0801 14.9852 15.0326 15.0327C14.9851 15.0802 14.9286 15.1176 14.8663 15.1427C14.8041 15.1679 14.7374 15.1802 14.6702 15.1791C14.6031 15.1779 14.5369 15.1632 14.4756 15.1359C14.4142 15.1085 14.359 15.0691 14.3133 15.02L12.1319 12.8393C10.8921 13.9127 9.30648 14.5024 7.66658 14.5C3.89325 14.5 0.833252 11.44 0.833252 7.66667Z" fill="white"/>
</g>
<defs>
<clipPath id="clip0_56_349">
<rect width="16" height="16" fill="white"/>
</clipPath>
</defs>
</svg>
