<svg width="151" height="150" viewBox="0 0 151 150" fill="none" xmlns="http://www.w3.org/2000/svg">
<path d="M63 100C63 98.2292 63.6 96.7458 64.8 95.55C66 94.3542 67.4833 93.7542 69.25 93.75H81.75C83.5208 93.75 85.0063 94.35 86.2063 95.55C87.4062 96.75 88.0042 98.2333 88 100V128.75C88 129.583 88.3646 130.26 89.0938 130.781C89.8229 131.302 90.6042 131.354 91.4375 130.938C98.5208 126.979 104.615 121.902 109.719 115.706C114.823 109.51 118.625 102.556 121.125 94.8437L75.5 59.5312L29.875 94.8437C32.375 102.448 36.1521 109.323 41.2063 115.469C46.2604 121.615 52.275 126.667 59.25 130.625C60.0833 131.146 60.9167 131.146 61.75 130.625C62.5833 130.104 63 129.375 63 128.437V100ZM25.5 39.8437V69.375C25.5 71.25 25.5792 73.3333 25.7375 75.625C25.8958 77.9167 26.1813 79.9479 26.5938 81.7187L67.8437 49.6875C70.1354 47.9167 72.6875 47.0312 75.5 47.0312C78.3125 47.0312 80.8646 47.9167 83.1563 49.6875L124.406 81.7187C124.823 79.9479 125.11 77.9167 125.269 75.625C125.427 73.3333 125.504 71.25 125.5 69.375V39.8437C125.5 37.2396 124.744 34.8958 123.231 32.8125C121.719 30.7292 119.767 29.2187 117.375 28.2812L79.875 14.2187C78.4167 13.6979 76.9583 13.4375 75.5 13.4375C74.0417 13.4375 72.5833 13.6979 71.125 14.2187L33.625 28.2812C31.2292 29.2187 29.2771 30.7292 27.7687 32.8125C26.2604 34.8958 25.5042 37.2396 25.5 39.8437Z" fill="#237BA1"/>
</svg>
