<svg width="151" height="150" viewBox="0 0 151 150" fill="none" xmlns="http://www.w3.org/2000/svg">
<path d="M69.25 131.25C61.4375 131.25 54.1208 129.792 47.3 126.875C40.4792 123.958 34.5146 119.948 29.4063 114.844C24.2979 109.74 20.2875 103.775 17.375 96.95C14.4625 90.125 13.0042 82.8083 13 75C12.9958 67.1917 14.4542 59.875 17.375 53.05C20.2958 46.225 24.3063 40.2604 29.4063 35.1562C34.5063 30.0521 40.4708 26.0417 47.3 23.125C54.1292 20.2083 61.4458 18.75 69.25 18.75C71.4375 18.75 73.5479 18.8812 75.5813 19.1438C77.6146 19.4062 79.6708 19.7958 81.75 20.3125V33.125C79.6667 32.5 77.6104 32.0312 75.5813 31.7187C73.5521 31.4062 71.4417 31.25 69.25 31.25C56.9583 31.25 46.5938 35.4688 38.1563 43.9062C29.7188 52.3438 25.5 62.7083 25.5 75C25.5 87.2917 29.7188 97.6562 38.1563 106.094C46.5938 114.531 56.9583 118.75 69.25 118.75C81.5417 118.75 91.9063 114.531 100.344 106.094C108.781 97.6562 113 87.2917 113 75C113 73.8542 112.948 72.8125 112.844 71.875C112.74 70.9375 112.583 69.8958 112.375 68.75H125.188C125.396 69.8958 125.5 70.9375 125.5 71.875V75C125.5 82.8125 124.042 90.1312 121.125 96.9562C118.208 103.781 114.198 109.744 109.094 114.844C103.99 119.944 98.025 123.954 91.2 126.875C84.375 129.796 77.0583 131.254 69.25 131.25ZM86.75 101.25L63 77.5V43.75H75.5V72.5L95.5 92.5L86.75 101.25ZM113 56.25V37.5H94.25V25H113V6.25H125.5V25H144.25V37.5H125.5V56.25H113Z" fill="#237BA1"/>
</svg>
